<svg xmlns="http://www.w3.org/2000/svg" width="180" viewBox="0 0 400 275" height="120" version="1.0"><defs><clipPath id="a"><path d="M 54.5 125.746094 L 170.75 125.746094 L 170.75 241.996094 L 54.5 241.996094 Z M 54.5 125.746094"/></clipPath></defs><g clip-path="url(#a)"><path fill="#FC3F00" d="M 56.785156 126.859375 C 58.0625 125.863281 59.726562 125.511719 61.296875 125.902344 L 166.5 152.203125 C 168.84375 152.789062 170.484375 154.894531 170.484375 157.308594 L 170.484375 209.910156 C 170.484375 212.324219 168.84375 214.425781 166.5 215.011719 L 61.296875 241.3125 C 59.726562 241.707031 58.0625 241.351562 56.785156 240.355469 C 55.507812 239.359375 54.761719 237.828125 54.761719 236.210938 L 54.761719 131.007812 C 54.761719 129.386719 55.507812 127.855469 56.785156 126.859375 Z M 65.28125 137.742188 L 65.28125 229.472656 L 159.964844 205.800781 L 159.964844 161.414062 Z M 65.28125 137.742188" fill-rule="evenodd"/></g><g fill="#FC3F00"><g><g><path d="M 7.144531 -27.242188 L 31.117188 0 L 31.496094 0 L 31.496094 -28.535156 C 31.613281 -32.601562 35.828125 -32.371094 35.828125 -32.371094 L 35.828125 -32.75 L 26.824219 -32.75 L 26.824219 -32.410156 C 26.824219 -32.371094 31.042969 -32.601562 31.15625 -28.535156 L 31.15625 -11.703125 L 12.578125 -32.75 L 1.898438 -32.75 L 1.898438 -32.371094 C 4.597656 -32.371094 6.117188 -31.003906 6.191406 -27.773438 L 6.191406 -4.179688 C 6.117188 -0.683594 2.925781 -0.378906 2.089844 -0.34375 L 1.898438 -0.34375 L 1.898438 0 L 10.867188 0 L 10.867188 -0.34375 L 10.675781 -0.34375 C 9.800781 -0.378906 6.648438 -0.683594 6.535156 -4.179688 L 6.535156 -27.886719 Z M 7.144531 -27.242188" transform="translate(178.835 197.569)"/></g></g></g><g fill="#FC3F00"><g><g><path d="M 1.898438 -0.34375 L 1.898438 0 L 29.40625 0 L 31.914062 -8.585938 L 31.574219 -8.585938 C 29.75 -3.078125 25.265625 -0.34375 18.730469 -0.34375 C 15.957031 -0.34375 14.25 -1.863281 14.25 -4.371094 L 14.25 -17.023438 L 19.949219 -17.023438 C 23.441406 -16.90625 23.785156 -13.753906 23.785156 -12.878906 L 23.785156 -12.691406 L 24.125 -12.691406 L 24.125 -21.65625 L 23.785156 -21.65625 L 23.785156 -21.46875 C 23.785156 -20.59375 23.441406 -17.441406 19.949219 -17.363281 L 14.25 -17.363281 L 14.285156 -32.410156 L 17.023438 -32.410156 C 26.214844 -32.410156 28.191406 -26.785156 28.570312 -24.847656 L 28.6875 -24.164062 L 28.988281 -24.316406 L 27.699219 -32.75 L 1.898438 -32.75 L 1.898438 -32.410156 C 4.671875 -32.410156 6.382812 -30.890625 6.382812 -28.382812 L 6.382812 -4.371094 C 6.382812 -1.863281 4.671875 -0.34375 1.898438 -0.34375 Z M 1.898438 -0.34375" transform="translate(217.321 197.569)"/></g></g></g><g fill="#FC3F00"><g><g><path d="M 7.027344 -28.457031 L 18.425781 -0.0390625 L 27.355469 -22.492188 L 36.398438 -0.0390625 L 47.683594 -28.421875 C 48.671875 -30.929688 50.648438 -32.410156 53.648438 -32.410156 L 53.648438 -32.75 L 44.644531 -32.75 L 44.644531 -32.410156 C 47.339844 -32.410156 48.292969 -30.929688 47.304688 -28.421875 L 40.238281 -10.601562 L 33.246094 -28.421875 C 32.257812 -30.929688 32.980469 -32.410156 35.257812 -32.410156 L 35.257812 -32.75 L 19.871094 -32.75 L 19.871094 -32.410156 C 22.265625 -32.296875 23.859375 -31.269531 25 -28.421875 L 27.167969 -22.988281 L 22.265625 -10.601562 L 15.3125 -28.421875 C 14.285156 -31.042969 14.933594 -32.332031 17.324219 -32.410156 L 17.324219 -32.75 L 1.898438 -32.75 L 1.898438 -32.410156 C 4.292969 -32.332031 6.003906 -31.042969 7.027344 -28.457031 Z M 7.027344 -28.457031" transform="translate(251.895 197.569)"/></g></g></g><g fill="#FC3F00"><g><g><path d="M 7.714844 -0.910156 C 12.539062 0.910156 19.378906 0.457031 22.605469 -2.773438 C 24.125 -4.292969 25.265625 -7.027344 25.265625 -9.234375 C 25.265625 -15.917969 19.910156 -17.171875 13.679688 -21.011719 C 10.03125 -23.253906 8.28125 -25.039062 8.28125 -27.621094 C 8.28125 -30.472656 9.6875 -32.675781 14.132812 -32.675781 C 15.882812 -32.675781 17.515625 -32.21875 18.84375 -31.460938 C 22.265625 -29.257812 22.453125 -22.949219 22.453125 -22.949219 L 22.796875 -22.949219 L 22.796875 -31.953125 L 22.453125 -31.953125 L 22.453125 -31.800781 C 22.304688 -30.359375 19.300781 -31.613281 18.007812 -32.257812 C 16.832031 -32.828125 15.503906 -33.019531 14.132812 -33.019531 C 9.574219 -33.019531 5.167969 -30.546875 3.417969 -26.597656 C 1.480469 -22.265625 3.304688 -19.566406 9.003906 -15.3125 C 13.144531 -12.234375 21.050781 -9.6875 20.898438 -5.433594 C 20.785156 -2.582031 18.730469 -0.152344 13.222656 -0.152344 C 7.636719 -0.152344 2.28125 -5.089844 2.28125 -9.992188 L 2.28125 -10.867188 L 1.9375 -10.867188 L 1.9375 0 L 2.28125 0 L 2.28125 -0.0390625 C 2.28125 -1.710938 2.582031 -2.886719 7.714844 -0.910156 Z M 7.714844 -0.910156" transform="translate(308.2 197.569)"/></g></g></g><g><g><g><path d="M 7.984375 -30.453125 L 34.785156 0 L 35.210938 0 L 35.210938 -31.898438 C 35.335938 -36.441406 40.050781 -36.1875 40.050781 -36.1875 L 40.050781 -36.609375 L 29.984375 -36.609375 L 29.984375 -36.230469 C 29.984375 -36.1875 34.699219 -36.441406 34.828125 -31.898438 L 34.828125 -13.082031 L 14.058594 -36.609375 L 2.125 -36.609375 L 2.125 -36.1875 C 5.140625 -36.1875 6.839844 -34.65625 6.921875 -31.046875 L 6.921875 -4.671875 C 6.839844 -0.765625 3.269531 -0.425781 2.335938 -0.382812 L 2.125 -0.382812 L 2.125 0 L 12.148438 0 L 12.148438 -0.382812 L 11.933594 -0.382812 C 10.957031 -0.425781 7.433594 -0.765625 7.304688 -4.671875 L 7.304688 -31.175781 Z M 7.984375 -30.453125" transform="translate(76.235 200.11)"/></g></g></g><g><g><g><path d="M 8.621094 -1.019531 C 14.015625 1.019531 21.660156 0.507812 25.269531 -3.101562 C 26.96875 -4.800781 28.246094 -7.855469 28.246094 -10.320312 C 28.246094 -17.796875 22.253906 -19.199219 15.289062 -23.488281 C 11.210938 -25.992188 9.257812 -27.988281 9.257812 -30.878906 C 9.257812 -34.0625 10.832031 -36.527344 15.800781 -36.527344 C 17.753906 -36.527344 19.578125 -36.015625 21.066406 -35.167969 C 24.890625 -32.703125 25.101562 -25.652344 25.101562 -25.652344 L 25.484375 -25.652344 L 25.484375 -35.71875 L 25.101562 -35.71875 L 25.101562 -35.550781 C 24.929688 -33.933594 21.574219 -35.335938 20.132812 -36.058594 C 18.816406 -36.695312 17.328125 -36.910156 15.800781 -36.910156 C 10.703125 -36.910156 5.777344 -34.148438 3.824219 -29.730469 C 1.65625 -24.890625 3.695312 -21.875 10.066406 -17.117188 C 14.695312 -13.675781 23.53125 -10.832031 23.359375 -6.074219 C 23.234375 -2.886719 20.9375 -0.167969 14.78125 -0.167969 C 8.535156 -0.167969 2.546875 -5.691406 2.546875 -11.171875 L 2.546875 -12.148438 L 2.167969 -12.148438 L 2.167969 0 L 2.546875 0 L 2.546875 -0.0429688 C 2.546875 -1.910156 2.886719 -3.226562 8.621094 -1.019531 Z M 8.621094 -1.019531" transform="translate(119.256 200.11)"/></g></g></g></svg>